<svg width="100%" height="80" viewBox="0 0 500 80" xmlns="http://www.w3.org/2000/svg">
  <defs>
    <style>
      .btn { transition: all 0.35s cubic-bezier(0.23, 1, 0.32, 1); cursor: pointer; }
      .btn:hover { transform: translateY(-3px) scale(1.03); }
      .icon { transition: transform 0.35s ease; }
      .btn:hover .icon { transform: scale(1.15); }
    </style>
  </defs>

  <a href="mailto:abdulazizbaratov12@gmail.com">
    <g class="btn" transform="translate(30, 15)">
      <rect x="0" y="0" width="200" height="48" rx="24" fill="#0d1117" stroke="rgba(218,41,28,0.3)" stroke-width="1.5"/>
      <rect x="4" y="4" width="40" height="40" rx="20" fill="rgba(218,41,28,0.1)"/>
      <g class="icon" transform="translate(14, 14)">
        <rect x="4" y="8" width="16" height="12" rx="2" fill="none" stroke="#ea4335" stroke-width="1.5"/>
        <path d="M20 8L12 15L4 8" fill="none" stroke="#ea4335" stroke-width="1.5" stroke-linecap="round"/>
      </g>
      <text x="56" y="30" fill="#ea4335" font-size="13" font-family="system-ui">abdulazizbaratov12@gmail.com</text>
    </g>
  </a>

  <a href="https://t.me/Pathfi1nder">
    <g class="btn" transform="translate(260, 15)">
      <rect x="0" y="0" width="180" height="48" rx="24" fill="#0d1117" stroke="rgba(0,136,204,0.25)" stroke-width="1.5"/>
      <rect x="4" y="4" width="40" height="40" rx="20" fill="rgba(0,136,204,0.1)"/>
      <g class="icon" transform="translate(15, 15)">
        <path d="M11.944 0A12 12 0 000 12a12 12 0 0012 12 12 12 0 0012-12A12 12 0 0012 0a12 12 0 00-.056 0zm4.962 7.224c.1-.002.321.023.465.14a.506.506 0 01.171.325c.016.093.036.306.02.472-.18 1.898-.962 6.502-1.36 8.627-.168.9-.499 1.201-.82 1.23-.696.065-1.225-.46-1.9-.902-1.056-.693-1.653-1.124-2.678-1.8-1.185-.78-.417-1.21.258-1.91.177-.184 3.247-2.977 3.307-3.23.007-.032.014-.15-.056-.212s-.174-.041-.249-.024c-.106.024-1.793 1.14-5.061 3.345-.48.33-.913.49-1.302.48-.428-.008-1.252-.241-1.865-.44-.752-.245-1.349-.374-1.297-.789.027-.216.325-.437.893-.663 3.498-1.524 5.83-2.529 6.998-3.014 3.332-1.386 4.025-1.627 4.476-1.635z" fill="#38bdf8"/>
      </g>
      <text x="56" y="30" fill="#38bdf8" font-size="13" font-family="system-ui">@Pathfi1nder</text>
    </g>
  </a>
</svg>
